<svg width="64" height="64" viewBox="0 0 64 64" fill="none" xmlns="http://www.w3.org/2000/svg">
<circle cx="32" cy="32" r="32" fill="#25D366"/>
<path d="M18.3 45.6 19.9 38c-1.2-2.1-1.9-4.5-1.9-7 0-7.3 6-13.3 13.3-13.3 3.6 0 7 1.4 9.6 4 2.6 2.6 4 6 4 9.6 0 7.3-6 13.3-13.3 13.3-2.3 0-4.6-.6-6.6-1.8l-6.7 2.8z" fill="white"/>
<path d="M30.6 23.1c-.4-.8-.8-.9-1.2-.9h-1c-.4 0-1 .1-1.5.7s-2 2-2 4.8 2.1 5.5 2.4 5.9c.3.4 3.9 6.2 9.7 8.5 4.8 1.9 5.8 1.6 6.9 1.5 1-.1 3.4-1.4 3.9-2.8s.5-2.5.3-2.8-.4-.4-.8-.6-2.5-1.2-2.9-1.3-.7-.2-1 .2-1.1 1.3-1.4 1.6c-.3.3-.5.4-.9.1-.4-.2-1.7-.6-3.3-2-1.2-1.1-2-2.5-2.3-2.9-.2-.4 0-.6.2-.8.2-.2.4-.4.6-.7.2-.2.3-.4.5-.6.2-.2.3-.4.5-.7.2-.2.1-.5 0-.7-.2-.2-1-2.5-1.4-3.4z" fill="#128C7E"/>
</svg>
